<?xml version="1.0" encoding="utf-8"?>
<!-- Generator: Adobe Illustrator 26.0.0, SVG Export Plug-In . SVG Version: 6.00 Build 0)  -->
<svg version="1.1" id="Layer_1" xmlns="http://www.w3.org/2000/svg" xmlns:xlink="http://www.w3.org/1999/xlink" x="0px" y="0px"
	 viewBox="0 0 300 300" style="enable-background:new 0 0 300 300;" xml:space="preserve">
<style type="text/css">
	.st0{fill:#FFFFFF;}
</style>
<path class="st0" d="M259.3,124.7c2.4-7.1,4.8-14.3,7.1-21.4c-39-22.5-77.9-45-116.9-67.6c-39,23-77.9,46.1-116.9,69.1
	c13.6,36.9,27.2,73.9,40.8,110.8c25.4,17.7,50.7,35.4,76.1,53.1c24.8-17.7,49.7-35.4,74.5-53.1c5.4-13.8,10.9-27.6,16.3-41.4
	c-30.3,18.4-60.6,36.8-90.9,55.1c-16.7-9.4-33.4-18.7-50-28.1c-4.9-16.8-9.9-33.7-14.8-50.5c21.6,12.2,43.2,24.4,64.8,36.6
	C186.1,166.4,222.7,145.5,259.3,124.7z M80.3,108.8c23.1-13.4,46.1-26.8,69.2-40.2c23.1,13.4,46.1,26.8,69.2,40.2
	c-23.1,13.5-46.1,26.9-69.2,40.4C126.4,135.8,103.4,122.3,80.3,108.8z"/>
</svg>
