<?xml version="1.0" encoding="utf-8"?>
<!-- Generator: Adobe Illustrator 26.0.0, SVG Export Plug-In . SVG Version: 6.00 Build 0)  -->
<svg version="1.1" id="Layer_1" xmlns="http://www.w3.org/2000/svg" xmlns:xlink="http://www.w3.org/1999/xlink" x="0px" y="0px"
	 viewBox="0 0 300 300" style="enable-background:new 0 0 300 300;" xml:space="preserve">
<style type="text/css">
	.st0{fill:#FFFFFF;}
</style>
<g>
	<path class="st0" d="M37.3,257.1H83c1.5,0,2.8-1.3,2.8-2.8V53.2c0-1.5-1.3-2.8-2.8-2.8H37.3c-1.5,0-2.8,1.3-2.8,2.8v201.2
		C34.5,255.9,35.8,257.1,37.3,257.1z"/>
	<path class="st0" d="M174,260.4c18.2,0,34.2-7.5,44.2-20.3l1.4,14.4c0.1,1.4,1.3,2.5,2.8,2.5h40.3c0,0,0,0,0,0
		c1.5,0,2.8-1.3,2.8-2.8c0-0.2,0-0.4,0-0.5c-0.6-9.8-1.2-26.8-1.2-43.1V42.4c0-1.5-1.3-2.8-2.8-2.8h-45.4c-1.5,0-2.8,1.3-2.8,2.8
		v72.1c-8.1-7.8-20.9-12.2-36.3-12.2c-17.4,0-33.7,6.8-45.9,19c-14.7,14.8-22.5,36.1-22.3,61.4C108.8,227.7,136.2,260.4,174,260.4z
		 M188.6,218.7c-17.4,0-28.2-14.4-28.2-37.5c0-17.8,7.5-38.7,28.5-38.7c13.3,0,21.6,10.1,23.8,20.1c0.3,2.2,0.6,5.3,0.6,7.6v19.1
		c0,4-0.3,6.9-1.1,9.7c0,0.1,0,0.1,0,0.2C209.7,210.8,200.3,218.7,188.6,218.7z"/>
</g>
</svg>
