<?xml version="1.0" encoding="utf-8"?>
<!-- Generator: Adobe Illustrator 26.0.0, SVG Export Plug-In . SVG Version: 6.00 Build 0)  -->
<svg version="1.1" id="Capa_1" xmlns="http://www.w3.org/2000/svg" xmlns:xlink="http://www.w3.org/1999/xlink" x="0px" y="0px"
	 viewBox="0 0 186 55" style="enable-background:new 0 0 186 55;" xml:space="preserve">
<style type="text/css">
	.st0{fill:none;stroke:#FFFFFF;stroke-width:3.20055;stroke-miterlimit:10;}
	.st1{fill:#FFFFFF;}
	.st2{font-family:'MyriadPro-Regular';}
	.st3{font-size:28.95847px;}
</style>
<g id="_x32_">
	<path class="st0" d="M38.6507,42.20104c2.96419,0,5.92837,0,8.89256,0c0-13.52278,0-27.04554,0-40.56829
		c-13.52997,0-27.05994,0-40.58992,0c0,2.82034,0,5.64068,0,8.46102"/>
	<path class="st0" d="M7.10614,41.4398v0.00003c9.0132,0,18.02637,0,27.03957,0c0.00041,0.06207,0.00469,0.12321,0.00469,0.18538
		c-0.00021,4.44643-0.00044,8.89284-0.00064,13.33927l-0.00405-13.52465C34.04619,26.58897,21.98064,14.57967,7.10617,14.57967
		H7.10614v26.86016c0,4.52007,0,9.0401,0,13.56017"/>
</g>
<text transform="matrix(1 0 0 1 58.37771 36.81543)" class="st1 st2 st3">Ana Laura</text>
</svg>
