<?xml version="1.0" encoding="utf-8"?>
<!-- Generator: Adobe Illustrator 26.0.0, SVG Export Plug-In . SVG Version: 6.00 Build 0)  -->
<svg version="1.1" id="Layer_1" xmlns="http://www.w3.org/2000/svg" xmlns:xlink="http://www.w3.org/1999/xlink" x="0px" y="0px"
	 viewBox="0 0 300 300" style="enable-background:new 0 0 300 300;" xml:space="preserve">
<style type="text/css">
	.st0{fill:#FFFFFF;}
</style>
<g>
	<path class="st0" d="M64.2,249.6V181c3.7,0.4,8,0.5,12.7,0.5c28.7,0,51.9-7.6,67.1-21.9c12.5-11.8,19.3-29.5,19.3-49.7
		c0-19.6-8.2-37.3-22.5-48.6c-14-11.2-34.7-16.7-63.1-16.7c-24.6,0-45.4,1.4-61.8,4.2c-1.3,0.2-2.3,1.4-2.3,2.8v198
		c0,1.5,1.3,2.8,2.8,2.8h45C63,252.4,64.2,251.2,64.2,249.6z M64.2,140.4V85.7c2.7-0.5,7.9-1.2,16-1.2c20.7,0,32.6,9.7,32.6,26.7
		c0,18.8-13.5,30-36.2,30C71.2,141.1,67.3,140.9,64.2,140.4z"/>
	<path class="st0" d="M244.9,157.9c-18.5-6.5-21.7-9.6-21.7-14c0-7.9,9.1-9.1,14.5-9.1c11.5,0,23.5,4.3,30.2,8
		c0.8,0.4,1.7,0.5,2.5,0.1c0.8-0.3,1.4-1,1.6-1.9l8-31.3c0.3-1.3-0.3-2.6-1.5-3.2c-8.3-4.2-23.9-8.6-42.3-8.6
		c-36.5,0-62.1,20.7-62.1,50.4c-0.2,14.5,7.1,34.3,43.3,46.5c17.6,5.9,19.5,8.9,19.5,14c0,2.3,0,9.4-16.6,9.4
		c-12.4,0-29.2-5.5-37.6-10.6c-0.8-0.5-1.7-0.5-2.5-0.2c-0.8,0.3-1.4,1-1.6,1.9l-8,32.5c-0.3,1.2,0.3,2.5,1.4,3.1
		c12.3,6.6,29.9,10.5,48.4,10.5c40.7,0,65.9-19.1,65.9-49.9C286,182.4,273.2,167.7,244.9,157.9z"/>
</g>
</svg>
