<?xml version="1.0" encoding="utf-8"?>
<!-- Generator: Adobe Illustrator 26.0.0, SVG Export Plug-In . SVG Version: 6.00 Build 0)  -->
<svg version="1.1" id="Layer_1" xmlns="http://www.w3.org/2000/svg" xmlns:xlink="http://www.w3.org/1999/xlink" x="0px" y="0px"
	 viewBox="0 0 300 300" style="enable-background:new 0 0 300 300;" xml:space="preserve">
<style type="text/css">
	.st0{fill:#FFFFFF;}
</style>
<path class="st0" d="M162.3,156.8c-14.6,5.6-29.3,11.2-43.9,16.8c3.6-17,7.2-34.1,10.8-51.1c10.8,11.2,21.7,22.5,32.5,33.7
	c10.4-2,20.8-4,31.3-6c1.6-10.6,3.2-21.3,4.8-31.9c-17-27.5-34.1-55.1-51.1-82.6c-20.5,11.3-40.9,22.6-61.4,33.9
	C75.9,132.1,66.4,194.6,57,257.2c14,3.8,28.1,7.6,42.1,11.4c4.4-21.3,8.8-42.5,13.2-63.8c37.5,19.7,75,39.3,112.5,59
	c6-8.2,12.1-16.4,18.1-24.7C216.1,211.7,189.2,184.2,162.3,156.8z"/>
</svg>
