<?xml version="1.0" encoding="utf-8"?>
<!-- Generator: Adobe Illustrator 26.0.0, SVG Export Plug-In . SVG Version: 6.00 Build 0)  -->
<svg version="1.1" id="Layer_1" xmlns="http://www.w3.org/2000/svg" xmlns:xlink="http://www.w3.org/1999/xlink" x="0px" y="0px"
	 viewBox="0 0 300 300" style="enable-background:new 0 0 300 300;" xml:space="preserve">
<style type="text/css">
	.st0{fill:#FFFFFF;}
</style>
<g>
	<path class="st0" d="M41.4,78.3c3.7-2.2,7-4.1,10.3-6C73.2,60.1,94.6,47.8,116,35.6c8.5-4.9,17.9-7,27.6-7.7
		c13.2-0.9,26.2,0.6,38.2,6.6c7.3,3.6,14.2,8,21.2,12c19.7,11.3,39.3,22.7,59,34c1.8,1,2.4,2.1,2.4,4.1c-0.1,30.6,0.2,61.2-0.2,91.7
		c-0.2,14.8-6.1,28-14.8,39.8c-6,8.2-13.4,14.7-22.3,19.7c-22.8,12.8-45.5,25.9-68.2,38.8c-1,0.5-1.9,1.1-3.3,1.8c0-1.5,0-2.6,0-3.7
		c0-41.7,0-83.4,0.1-125.1c0-2.8-0.8-4.3-3.2-5.7c-36.2-20.7-72.3-41.4-108.5-62.2C43.3,79.5,42.6,79,41.4,78.3z M98.4,78.4
		c1.7,1,3.1,1.6,4.1,2.5c4.9,4.3,9.7,4.5,14.8,0.2c1.6-1.4,3.7-2.1,5.5-3.3c6.8-4.4,14.2-7.1,22.3-7.7c9.6-0.7,18.9,0.2,27.4,5.1
		c16.5,9.3,32.9,18.9,49.4,28.2c1.8,1,2.4,2.2,2.4,4.2c-0.1,18.6,0.3,37.2-0.1,55.8c-0.4,18-8.6,32-24.1,41.4
		c-4.6,2.8-9.2,5.3-13.8,8c-0.8,0.5-2,1.3-2,2c-0.2,4-0.1,7.9-0.1,12.4c1.4-0.7,2.3-1.1,3.2-1.6c5.8-3.3,11.9-6.4,17.5-10.1
		c4.8-3.2,9.6-6.5,13.6-10.6c10.6-10.8,17.1-24,17.5-39.3c0.5-21.7,0.1-43.4,0.2-65.1c0-1.9-0.7-2.8-2.2-3.7
		c-18.2-10.5-36.1-21.6-54.7-31.4c-19-10-38.7-10.2-58.1-0.2c-6.6,3.4-13,7.4-19.5,11.1C100.6,77,99.7,77.6,98.4,78.4z M184.1,176.9
		c0.3,0.1,0.6,0.2,0.8,0.2c5.2-7.1,9.9-14.6,10.5-23.5c0.7-10,0.4-20.2,0.3-30.2c0-1-1.2-2.5-2.2-3.1c-6.2-3.7-12.7-7.2-18.9-11
		c-8.8-5.3-18.4-7-28.5-6.4c-1.1,0.1-2.2,0.4-3.9,0.7c1.5,0.9,2.3,1.5,3.2,2c12.1,7,24.2,14,36.4,20.9c1.7,0.9,2.3,1.9,2.3,3.9
		c-0.1,14.5,0,29,0,43.4C184.1,174.8,184.1,175.8,184.1,176.9z"/>
	<path class="st0" d="M36.2,181.8c26.6,15.3,52.6,30.2,79.3,45.5c0-4.6,0.1-8.7-0.1-12.7c0-0.7-1.4-1.6-2.4-2.1
		c-22.9-13.2-45.8-26.4-68.7-39.6c-0.8-0.5-1.6-1-2.7-1.7c1.4-0.8,2.6-1.5,3.8-2.2c7.3-4.2,14.7-8.3,21.9-12.5
		c1.8-1.1,3.2-1.2,5.1-0.1c13.3,7.7,26.7,15.4,40.1,23c0.9,0.5,1.8,1,3.2,1.7c0-4.8,0.1-9.1-0.1-13.4c0-0.8-1.7-1.6-2.7-2.1
		c-24.6-14.1-49.1-28.2-73.7-42.2c-2.7-1.5-3.7-3.2-3.6-6.3c0.2-8.3,0.1-16.6,0.1-25c0-1,0-2,0-3.4c1.4,0.7,2.3,1.1,3.1,1.6
		c34.3,19.6,68.6,39.3,102.9,58.9c1.5,0.9,2.3,1.8,2.3,3.7c-0.1,40.4,0,80.8,0,121.2c0,0.6-0.1,1.3-0.2,2.2
		c-0.9-0.5-1.7-0.8-2.4-1.2c-23.4-13.5-46.8-26.9-70.2-40.4c-19.7-11.4-29.7-29.6-34.8-51C36.1,183.3,36.2,182.8,36.2,181.8z"/>
</g>
</svg>
